#!OML:ASF F:\VICON\USERDATA\INSTALL\rory3\rory3.ASF
:FULLY-SPECIFIED
:DEGREES
294
root 9.09439 15.1176 7.72146 6.9243 42.0953 3.05714
lowerback 25.5319 1.17365 1.5858
upperback 6.13942 2.3442 2.29294
thorax -7.40411 1.19789 0.869947
lowerneck -13.5249 -5.17401 -12.031
upperneck 37.1049 -4.55283 3.49397
head 15.8674 -2.86611 2.90752
rclavicle -6.52014e-014 1.11319e-014
rhumerus -3.77386 11.7721 -82.7012
rradius 44.0499
rwrist 8.2724
rhand -19.6443 4.02076
rfingers 7.12502
rthumb 6.68323 -25.8538
lclavicle -6.52014e-014 1.11319e-014
lhumerus -28.9678 -21.8068 94.7782
lradius 68.7041
lwrist -4.01884
lhand -26.3101 21.4754
lfingers 7.12502
lthumb 0.246195 51.455
rfemur -56.1345 -30.9153 29.2943
rtibia 83.7404
rfoot -26.2734 2.04006
rtoes 4.44757
lfemur -51.6524 12.3762 -21.8104
ltibia 78.1197
lfoot -20.593 -14.9453
ltoes -0.648688
295
root 9.12366 14.9621 7.73601 7.11375 42.027 3.15337
lowerback 25.5948 1.2434 1.52352
upperback 6.16198 2.42035 2.30182
thorax -7.41436 1.23522 0.890667
lowerneck -13.5126 -5.21481 -12.0012
upperneck 37.0315 -4.62479 3.49075
head 15.8335 -2.89063 2.88647
rclavicle -1.59028e-015 2.22639e-014
rhumerus -2.91206 12.5201 -82.7227
rradius 43.7529
rwrist 9.00759
rhand -19.5258 4.03625
rfingers 7.12502
rthumb 6.79757 -25.8346
lclavicle -1.59028e-015 2.22639e-014
lhumerus -28.8619 -22.301 95.1546
lradius 68.9076
lwrist -5.36342
lhand -26.4758 21.5979
lfingers 7.12502
lthumb 0.0861551 51.5776
rfemur -57.5986 -31.4207 29.4267
rtibia 85.8714
rfoot -26.3927 2.49909
rtoes 4.14665
lfemur -52.8655 12.631 -21.854
ltibia 80.1112
lfoot -20.9009 -15.5134
ltoes -0.399549
296
root 9.15455 14.8081 7.74919 7.25339 41.9698 3.17231
lowerback 25.6846 1.26912 1.51392
upperback 6.15204 2.45684 2.33589
thorax -7.47299 1.25222 0.920279
lowerneck -13.463 -5.23345 -12.0833
upperneck 36.9415 -4.65263 3.53342
head 15.7845 -2.90659 2.91274
rclavicle -2.06736e-014 -1.11319e-014
rhumerus -2.14197 13.2089 -82.76
rradius 43.4864
rwrist 9.689
rhand -19.073 3.97624
rfingers 7.12502
rthumb 7.23469 -25.8801
lclavicle -2.06736e-014 -1.11319e-014
lhumerus -28.8511 -22.6114 95.5901
lradius 69.1472
lwrist -6.62511
lhand -26.7362 21.8303
lfingers 7.12502
lthumb -0.165314 51.8099
rfemur -59.0641 -31.9527 29.6455
rtibia 88.0054
rfoot -26.4835 2.88533
rtoes 3.52096
lfemur -54.0701 12.8894 -21.8514
ltibia 82.1473
lfoot -20.754 -16.2989
ltoes 2.43138
297
root 9.18239 14.6577 7.76309 7.10853 41.953 3.02524
lowerback 25.9758 1.24049 1.62399
upperback 6.18809 2.46256 2.37391
thorax -7.57668 1.25356 0.891602
lowerneck -13.5492 -5.24311 -12.139
upperneck 36.9358 -4.68152 3.63952
head 15.8105 -2.91259 2.96211
rclavicle -6.59965e-014 2.54444e-014
rhumerus -1.30608 13.9514 -82.8516
rradius 43.0142
rwrist 10.3307
rhand -18.702 3.9817
rfingers 7.12502
rthumb 7.59279 -25.862
lclavicle -6.59965e-014 2.54444e-014
lhumerus -28.8365 -22.8364 95.8913
lradius 69.4583
lwrist -7.79173
lhand -27.0332 21.7978
lfingers 7.12502
lthumb -0.452136 51.7771
rfemur -60.3235 -32.5198 29.9219
rtibia 90.0911
rfoot -26.5532 3.31188
rtoes 3.05092
lfemur -55.0886 13.2274 -21.7019
ltibia 84.1525
lfoot -20.5279 -17.1013
ltoes 6.06198
298
root 9.21425 14.4921 7.77241 7.3217 42.1989 3.02456
lowerback 25.8878 1.13045 1.81869
upperback 6.19866 2.36883 2.36191
thorax -7.51153 1.2072 0.798249
lowerneck -13.6831 -5.28135 -12.0451
upperneck 36.9774 -4.77395 3.7002
head 15.8701 -2.93032 2.95508
rclavicle 2.38542e-014 2.38542e-014
rhumerus -0.302701 14.6471 -82.9087
rradius 42.2149
rwrist 10.7514
rhand -18.6815 3.83936
rfingers 7.12502
rthumb 7.61261 -26.0036
lclavicle 2.38542e-014 2.38542e-014
lhumerus -28.7942 -23.119 96.0831
lradius 69.8424
lwrist -8.78229
lhand -27.768 22.2549
lfingers 7.12502
lthumb -1.16187 52.2315
rfemur -62.1007 -33.2568 30.3128
rtibia 92.2219
rfoot -26.3702 3.80981
rtoes 3.7
lfemur -56.598 13.2586 -21.8331
ltibia 86.2078
lfoot -20.7403 -17.3841
ltoes 6.25616
299
root 9.24053 14.3271 7.78967 7.3011 41.9404 2.98943
lowerback 26.0047 1.23039 1.66189
upperback 6.28709 2.46265 2.39785
thorax -7.48059 1.25543 0.896699
lowerneck -13.7644 -5.26709 -12.0153
upperneck 36.9452 -4.74028 3.66348
head 15.8671 -2.91668 2.93778
rclavicle -5.08889e-014 3.81667e-014
rhumerus 0.65019 15.1676 -83.0105
rradius 41.4508
rwrist 11.2896
rhand -18.6941 3.64423
rfingers 7.12502
rthumb 7.60038 -26.1992
lclavicle -5.08889e-014 3.81667e-014
lhumerus -28.7075 -23.1288 96.2616
lradius 70.2014
lwrist -9.80014
lhand -28.6298 22.9238
lfingers 7.12502
lthumb -1.99416 52.8942
rfemur -63.477 -33.5696 30.5675
rtibia 94.2709
rfoot -26.1763 4.19003
rtoes 4.43378
lfemur -57.7615 13.8809 -21.9536
ltibia 88.2253
lfoot -20.9524 -17.6224
ltoes 5.9883
